<svg xmlns="http://www.w3.org/2000/svg" width="24" height="24" viewBox="0 0 24 24" shape-rendering="crispEdges">
  <rect width="24" height="24" fill="none"/>
  <rect x="9" y="3" width="6" height="1" fill="#1a1a1a"/>
  <rect x="7" y="4" width="10" height="1" fill="#ffffff"/>
  <rect x="6" y="5" width="12" height="1" fill="#ffffff"/>
  <rect x="5" y="6" width="14" height="2" fill="#ffffff"/>
  <rect x="4" y="8" width="16" height="8" fill="#ffffff"/>
  <rect x="5" y="16" width="14" height="2" fill="#ffffff"/>
  <rect x="6" y="18" width="12" height="1" fill="#ffffff"/>
  <rect x="7" y="19" width="10" height="1" fill="#ffffff"/>
  <rect x="9" y="20" width="6" height="1" fill="#1a1a1a"/>
  <rect x="11" y="10" width="2" height="2" fill="#1a1a1a"/>
  <rect x="10" y="12" width="1" height="1" fill="#1a1a1a"/>
  <rect x="13" y="12" width="1" height="1" fill="#1a1a1a"/>
  <rect x="9" y="9" width="1" height="1" fill="#d8d8d8"/>
  <rect x="14" y="9" width="1" height="1" fill="#d8d8d8"/>
  <rect x="8" y="14" width="1" height="1" fill="#d8d8d8"/>
  <rect x="15" y="14" width="1" height="1" fill="#d8d8d8"/>
</svg>
